<svg id="visual" viewBox="0 0 900 600" width="900" height="600" xmlns="http://www.w3.org/2000/svg" xmlns:xlink="http://www.w3.org/1999/xlink" version="1.1"><rect x="0" y="0" width="900" height="600" fill="#fff"></rect><path d="M0 417L21.5 422.2C43 427.3 86 437.7 128.8 448.5C171.7 459.3 214.3 470.7 257.2 475C300 479.3 343 476.7 385.8 463.5C428.7 450.3 471.3 426.7 514.2 411.3C557 396 600 389 642.8 384.2C685.7 379.3 728.3 376.7 771.2 385.7C814 394.7 857 415.3 878.5 425.7L900 436L900 601L878.5 601C857 601 814 601 771.2 601C728.3 601 685.7 601 642.8 601C600 601 557 601 514.2 601C471.3 601 428.7 601 385.8 601C343 601 300 601 257.2 601C214.3 601 171.7 601 128.8 601C86 601 43 601 21.5 601L0 601Z" fill="#110e1c" stroke-linecap="round" stroke-linejoin="miter"></path></svg>